<svg xmlns="http://www.w3.org/2000/svg" xmlns:xlink="http://www.w3.org/1999/xlink" width="500" zoomAndPan="magnify" viewBox="0 0 375 374.999991" height="500" preserveAspectRatio="xMidYMid meet" version="1.0"><defs><clipPath id="cbba0f502f"><path d="M 1.550781 1.550781 L 373.449219 1.550781 L 373.449219 373.449219 L 1.550781 373.449219 Z M 1.550781 1.550781 " clip-rule="nonzero"/></clipPath><clipPath id="86651577f3"><path d="M 187.5 1.550781 C 84.804688 1.550781 1.550781 84.804688 1.550781 187.5 C 1.550781 290.195312 84.804688 373.449219 187.5 373.449219 C 290.195312 373.449219 373.449219 290.195312 373.449219 187.5 C 373.449219 84.804688 290.195312 1.550781 187.5 1.550781 Z M 187.5 1.550781 " clip-rule="nonzero"/></clipPath><clipPath id="7d4294c3be"><path d="M 27 107.542969 L 348 107.542969 L 348 267 L 27 267 Z M 27 107.542969 " clip-rule="nonzero"/></clipPath></defs><g clip-path="url(#cbba0f502f)"><g clip-path="url(#86651577f3)"><path fill="#ffffff" d="M 1.550781 1.550781 L 373.449219 1.550781 L 373.449219 373.449219 L 1.550781 373.449219 Z M 1.550781 1.550781 " fill-opacity="1" fill-rule="nonzero"/></g></g><g clip-path="url(#7d4294c3be)"><path fill="#000000" d="M 179.644531 108.367188 C 180.210938 108.03125 180.8125 107.789062 181.453125 107.640625 C 182.605469 107.535156 183.757812 107.5625 184.90625 107.734375 C 185.648438 107.921875 186.328125 108.238281 186.953125 108.675781 C 187.964844 109.25 188.933594 109.882812 189.867188 110.574219 C 190.785156 111.257812 191.621094 112.027344 192.375 112.886719 C 193.402344 114.117188 194.289062 115.453125 195.210938 116.757812 C 195.394531 117.027344 195.492188 117.324219 195.503906 117.652344 C 195.503906 120.492188 195.578125 123.332031 195.503906 126.171875 C 195.503906 126.722656 194.984375 127.277344 194.667969 127.84375 C 194.566406 128.027344 194.375 128.160156 194.257812 128.335938 C 193.304688 129.90625 192.332031 131.46875 191.421875 133.066406 C 190.71875 134.277344 190.324219 135.722656 189.378906 136.71875 C 187.992188 138.195312 188.285156 140.21875 187.140625 141.730469 C 186.886719 142.175781 186.78125 142.652344 186.820312 143.160156 C 186.820312 145.539062 186.820312 147.921875 186.820312 150.300781 C 186.941406 150.925781 187.21875 151.464844 187.664062 151.921875 C 188.105469 152.375 188.636719 152.671875 189.253906 152.808594 C 191.042969 152.910156 192.867188 152.808594 194.332031 154.097656 C 194.464844 154.175781 194.605469 154.21875 194.757812 154.230469 C 197.417969 154.570312 199.703125 155.832031 202.117188 156.828125 C 204.316406 157.761719 206.359375 158.949219 208.257812 160.394531 C 210.164062 161.890625 211.9375 163.527344 213.578125 165.308594 C 215.058594 166.859375 216.453125 168.484375 217.757812 170.1875 C 218.945312 171.71875 219.957031 173.363281 221.105469 174.917969 C 222.390625 176.6875 223.730469 178.417969 225.058594 180.15625 C 226.199219 181.632812 227.335938 183.121094 228.507812 184.582031 C 229.035156 185.300781 229.625 185.964844 230.277344 186.574219 C 233.046875 188.953125 235.773438 191.394531 238.683594 193.597656 C 240.550781 194.925781 242.515625 196.082031 244.582031 197.074219 C 247.484375 198.570312 250.433594 199.921875 253.414062 201.328125 C 255.328125 202.238281 257.277344 203.089844 259.167969 204.050781 C 260.488281 204.726562 261.734375 205.539062 263.015625 206.28125 C 263.242188 206.40625 263.5 206.464844 263.734375 206.574219 L 268.902344 209.164062 C 269.003906 209.207031 269.085938 209.289062 269.1875 209.332031 C 270.710938 209.941406 272.265625 210.484375 273.746094 211.167969 C 275.226562 211.855469 276.4375 212.625 277.769531 213.359375 C 277.902344 213.425781 278.011719 213.527344 278.144531 213.585938 C 279.601562 214.167969 281.097656 214.679688 282.511719 215.347656 C 283.921875 216.015625 285.230469 216.808594 286.582031 217.554688 C 286.699219 217.640625 286.816406 217.722656 286.941406 217.796875 C 288.355469 218.390625 289.796875 218.921875 291.175781 219.582031 C 292.730469 220.328125 294.21875 221.253906 295.765625 222 C 296.972656 222.601562 298.226562 223.117188 299.4375 223.667969 C 301.109375 224.503906 302.785156 225.339844 304.457031 226.175781 C 304.589844 226.242188 304.699219 226.335938 304.832031 226.402344 L 309.769531 228.949219 C 310.035156 229.082031 310.320312 229.175781 310.605469 229.300781 C 312.554688 230.195312 314.5 231.089844 316.457031 232.007812 C 317.613281 232.550781 318.765625 233.101562 319.886719 233.679688 C 320.253906 233.90625 320.578125 234.1875 320.859375 234.515625 C 321.746094 235.40625 322.289062 236.277344 321.453125 237.597656 C 320.957031 238.367188 321.863281 239.460938 323.039062 239.550781 C 324.820312 239.792969 326.492188 239.472656 328.058594 238.589844 C 328.378906 238.425781 328.710938 238.394531 329.054688 238.492188 C 329.816406 238.730469 330.558594 239.027344 331.277344 239.375 C 332.425781 239.859375 333.511719 240.457031 334.53125 241.164062 C 336.808594 242.9375 338.984375 244.824219 341.066406 246.820312 C 341.972656 247.882812 342.722656 249.042969 343.316406 250.304688 C 344.25 251.683594 345.027344 253.148438 345.640625 254.699219 C 346.417969 257.207031 347.898438 259.578125 347.378906 262.371094 C 347.347656 262.78125 347.1875 263.136719 346.902344 263.433594 C 346.621094 263.734375 346.273438 263.910156 345.867188 263.964844 C 344.988281 264.171875 344.101562 264.210938 343.210938 264.078125 C 342.320312 263.945312 341.484375 263.652344 340.703125 263.195312 C 340.425781 263.011719 340.121094 262.878906 339.792969 262.804688 C 337.355469 262.269531 334.890625 261.898438 332.398438 261.703125 C 320.691406 261.433594 308.980469 261.292969 297.273438 261.167969 C 280.460938 260.984375 263.652344 260.828125 246.847656 260.707031 C 243.894531 260.707031 240.941406 260.664062 238 260.546875 C 233.046875 260.355469 228.105469 260.003906 223.152344 259.855469 C 218.078125 259.703125 212.992188 259.644531 207.914062 259.644531 C 194.058594 259.644531 180.199219 259.683594 166.339844 259.753906 C 158.125 259.804688 149.914062 259.972656 141.691406 260.113281 C 120.339844 260.480469 98.976562 260.949219 77.617188 261.199219 C 72.371094 261.265625 67.210938 262.136719 62 262.292969 C 55.914062 262.46875 49.824219 262.453125 43.734375 262.527344 C 42.804688 262.527344 41.871094 262.628906 40.941406 262.621094 C 38.507812 262.621094 36.535156 263.65625 34.644531 264.933594 C 34.492188 265.035156 34.332031 265.128906 34.167969 265.210938 C 33.246094 265.636719 32.328125 266.046875 31.398438 266.488281 C 29.464844 267.324219 27.140625 265.921875 27.292969 263.898438 C 27.421875 263.023438 27.625 262.167969 27.902344 261.324219 C 28.089844 260.714844 28.246094 260.097656 28.371094 259.472656 C 28.53125 258.34375 28.570312 257.199219 29.574219 256.363281 C 29.726562 256.238281 29.734375 255.96875 29.84375 255.785156 C 30.679688 254.339844 31.398438 252.871094 32.277344 251.464844 C 32.976562 250.398438 33.742188 249.378906 34.566406 248.410156 C 35.125 247.761719 35.726562 247.160156 36.375 246.605469 C 37.410156 245.707031 38.476562 244.847656 39.570312 244.023438 C 39.984375 243.789062 40.421875 243.59375 40.875 243.445312 C 41.308594 243.277344 41.710938 243.050781 42.078125 242.769531 C 42.765625 242.125 43.292969 242.25 44.003906 242.769531 C 45.136719 243.804688 46.472656 244.324219 48.007812 244.332031 C 50.265625 244.1875 50.976562 242.925781 49.933594 241.0625 C 49.6875 240.539062 49.6875 240.015625 49.933594 239.492188 C 50.820312 237.90625 52.390625 237.0625 54.039062 236.285156 C 55.4375 235.632812 56.757812 234.839844 58.128906 234.121094 C 59.242188 233.519531 60.382812 232.933594 61.542969 232.367188 C 62.519531 231.875 63.507812 231.40625 64.511719 230.964844 C 65.839844 230.371094 67.210938 229.84375 68.523438 229.207031 C 69.839844 228.574219 71.101562 227.839844 72.378906 227.144531 C 72.605469 227.019531 72.816406 226.859375 73.042969 226.753906 C 75.082031 225.765625 77.113281 224.773438 79.164062 223.828125 C 80.476562 223.21875 81.847656 222.726562 83.144531 222.082031 C 84.441406 221.4375 85.746094 220.660156 87.042969 219.941406 C 87.097656 219.894531 87.15625 219.855469 87.21875 219.816406 C 88.75 219.148438 90.269531 218.496094 91.792969 217.820312 C 92.035156 217.679688 92.261719 217.515625 92.46875 217.328125 C 92.777344 217.082031 93.097656 216.855469 93.433594 216.652344 C 94.191406 216.25 94.972656 215.882812 95.757812 215.523438 C 97.152344 214.894531 98.574219 214.328125 99.9375 213.667969 C 101.4375 212.949219 102.898438 212.171875 104.378906 211.410156 C 104.53125 211.308594 104.691406 211.214844 104.855469 211.136719 C 106.914062 210.578125 108.605469 209.375 110.410156 208.355469 C 111.671875 207.636719 113.09375 207.175781 114.410156 206.523438 C 115.722656 205.871094 116.84375 205.203125 118.054688 204.527344 C 118.179688 204.460938 118.28125 204.335938 118.414062 204.277344 C 119.9375 203.582031 121.476562 202.921875 122.972656 202.1875 C 124.019531 201.679688 125.011719 201.058594 126.027344 200.515625 C 127.503906 199.679688 129.003906 198.847656 130.464844 198.011719 C 131.34375 197.5 132.207031 196.957031 133.035156 196.339844 C 134.707031 195.144531 136.378906 193.957031 137.992188 192.679688 C 139.320312 191.605469 140.582031 190.460938 141.78125 189.246094 C 143.105469 187.925781 144.359375 186.539062 145.554688 185.117188 C 146.289062 184.242188 146.84375 183.222656 147.535156 182.304688 C 148.230469 181.382812 149.117188 180.390625 149.863281 179.402344 C 150.605469 178.417969 151.21875 177.398438 151.953125 176.429688 C 153.28125 174.683594 154.65625 172.96875 156.007812 171.25 C 157.0625 169.914062 158.074219 168.542969 159.210938 167.261719 C 160.492188 165.828125 161.929688 164.507812 163.234375 163.085938 C 164.539062 161.664062 166.332031 160.839844 167.808594 159.644531 C 169.203125 158.472656 170.746094 157.550781 172.4375 156.878906 C 173.769531 156.257812 175.046875 155.53125 176.265625 154.707031 C 176.265625 154.707031 176.332031 154.65625 176.367188 154.65625 C 178.699219 154.414062 180.546875 152.71875 183.058594 152.808594 C 184.730469 152.875 185.164062 152.359375 185.082031 150.695312 C 184.996094 149.03125 184.773438 147.21875 184.789062 145.480469 C 184.738281 143.949219 184.902344 142.4375 185.28125 140.953125 C 185.890625 139.367188 186.644531 137.851562 187.539062 136.40625 C 188.203125 135.203125 188.9375 134.027344 189.679688 132.867188 C 190.425781 131.703125 191.355469 130.632812 191.964844 129.421875 C 192.902344 127.644531 194.265625 126.03125 193.863281 123.726562 C 193.546875 121.894531 193.863281 119.964844 193.746094 118.085938 C 193.617188 117.558594 193.382812 117.082031 193.042969 116.65625 C 192.886719 116.382812 192.59375 116.164062 192.484375 115.878906 C 191.523438 113.296875 189.421875 111.9375 186.988281 110.683594 C 185.457031 110.019531 183.855469 109.660156 182.1875 109.605469 C 181.351562 109.441406 180.539062 109.207031 179.746094 108.902344 C 179.652344 108.71875 179.644531 108.542969 179.644531 108.367188 Z M 325.457031 254.757812 L 325.457031 254.382812 C 322.949219 252.953125 320.441406 251.457031 317.929688 250.097656 C 315.640625 248.867188 313.207031 247.875 310.929688 246.613281 C 308.210938 245.109375 305.601562 243.421875 302.609375 242.433594 C 302.40625 242.351562 302.214844 242.242188 302.039062 242.109375 C 300.976562 241.449219 299.964844 240.714844 298.851562 240.136719 C 294.8125 238.046875 290.742188 236.019531 286.683594 233.960938 C 286.515625 233.878906 286.367188 233.769531 286.207031 233.679688 C 284.828125 232.84375 283.464844 232.050781 282.023438 231.289062 C 280.871094 230.664062 279.632812 230.152344 278.480469 229.535156 C 275.175781 227.761719 271.898438 225.957031 268.601562 224.1875 C 267.40625 223.535156 266.183594 222.941406 264.996094 222.289062 C 263.808594 221.640625 262.621094 220.871094 261.390625 220.226562 C 259.980469 219.476562 258.5 218.832031 257.078125 218.085938 C 253.730469 216.351562 250.476562 214.578125 247.15625 212.847656 C 245.960938 212.222656 244.648438 211.738281 243.476562 211.101562 C 240.859375 209.714844 238.292969 208.238281 235.664062 206.875 C 233.039062 205.511719 230.347656 204.226562 227.6875 202.898438 C 226.414062 202.253906 225.175781 201.628906 223.890625 200.941406 C 221.964844 199.890625 220.109375 198.703125 218.144531 197.726562 C 216.46875 196.890625 214.640625 196.246094 212.875 195.511719 C 212.679688 195.414062 212.488281 195.304688 212.304688 195.1875 C 210.375 194.09375 208.464844 192.945312 206.5 191.910156 C 204.394531 190.800781 202.21875 189.824219 200.09375 188.746094 C 199.023438 188.203125 198.011719 187.566406 196.949219 187.007812 C 195.535156 186.261719 194.121094 185.503906 192.660156 184.859375 C 191.546875 184.367188 190.335938 184.089844 189.203125 183.640625 C 188.621094 183.371094 188.003906 183.230469 187.363281 183.214844 C 186.71875 183.199219 186.097656 183.308594 185.5 183.546875 C 183.886719 184.222656 182.328125 185.050781 180.757812 185.835938 C 179.679688 186.378906 178.601562 186.941406 177.546875 187.507812 C 176.273438 188.21875 175.035156 188.953125 173.78125 189.679688 C 172.6875 190.324219 171.625 191.035156 170.488281 191.609375 C 169.125 192.296875 167.695312 192.863281 166.304688 193.492188 C 166.171875 193.546875 166.078125 193.683594 165.953125 193.757812 C 163.886719 194.96875 161.839844 196.222656 159.730469 197.367188 C 158.417969 198.085938 156.988281 198.605469 155.632812 199.253906 C 154.703125 199.699219 153.800781 200.183594 152.90625 200.683594 C 151.492188 201.46875 150.113281 202.355469 148.675781 203.082031 C 146.617188 204.175781 144.492188 205.1875 142.433594 206.28125 C 140.855469 207.117188 139.316406 208.046875 137.734375 208.890625 C 136.570312 209.515625 135.359375 210.050781 134.179688 210.652344 C 131.546875 211.996094 128.910156 213.367188 126.285156 214.730469 C 126.152344 214.796875 126.035156 214.878906 125.910156 214.953125 C 124.722656 215.664062 123.550781 216.425781 122.335938 217.09375 C 120.164062 218.296875 117.9375 219.40625 115.773438 220.628906 C 112.917969 222.171875 110.09375 223.84375 107.242188 225.515625 C 105.566406 226.453125 103.894531 227.378906 102.222656 228.257812 C 100.890625 228.949219 99.519531 229.558594 98.175781 230.21875 C 97.066406 230.707031 95.996094 231.261719 94.960938 231.890625 C 92.636719 233.429688 90.40625 235.089844 87.667969 235.949219 C 87.5625 235.988281 87.464844 236.039062 87.367188 236.101562 C 84.625 237.773438 81.90625 239.445312 79.113281 241.039062 C 76.898438 242.292969 74.546875 243.34375 72.296875 244.566406 C 70.046875 245.785156 68.113281 247.003906 65.980469 248.148438 C 63.851562 249.292969 61.566406 250.40625 59.359375 251.535156 C 59.199219 251.617188 59.066406 251.75 58.914062 251.84375 C 57.71875 252.609375 56.523438 253.371094 55.335938 254.148438 C 54.5 254.691406 53.722656 255.269531 52.917969 255.820312 C 53.300781 256.070312 53.71875 256.191406 54.171875 256.179688 C 55.175781 256.179688 56.1875 256.128906 57.191406 256.121094 C 61.824219 256.0625 66.460938 256.121094 71.085938 255.945312 C 75.074219 255.792969 79.046875 255.203125 83.027344 255.109375 C 102.933594 254.800781 122.839844 254.625 142.734375 254.347656 C 148.222656 254.273438 153.699219 253.914062 159.1875 253.863281 C 166.839844 253.78125 174.5 253.765625 182.152344 253.863281 C 189.808594 253.964844 197.601562 254.464844 205.320312 254.609375 C 215.671875 254.808594 226.015625 254.914062 236.359375 254.925781 C 256.003906 254.976562 275.667969 254.925781 295.296875 254.925781 C 304.5 254.925781 313.75 255.050781 322.972656 255.074219 C 323.8125 255.039062 324.640625 254.933594 325.457031 254.757812 Z M 325.457031 254.757812 " fill-opacity="1" fill-rule="nonzero"/></g><path fill="#000000" d="M 165.050781 119.839844 C 164.441406 118.894531 164.597656 118.527344 165.050781 118.011719 C 165.792969 117.226562 166.28125 116.214844 166.957031 115.363281 C 168.09375 113.925781 168.722656 112.019531 170.628906 111.242188 C 170.988281 111.15625 171.355469 111.132812 171.726562 111.167969 C 171.800781 111.257812 171.867188 111.359375 171.933594 111.460938 C 171.023438 112.730469 170.117188 114.015625 169.191406 115.285156 C 168.589844 116.15625 167.941406 116.992188 167.25 117.792969 C 166.648438 118.511719 165.863281 119.113281 165.050781 119.839844 Z M 165.050781 119.839844 " fill-opacity="1" fill-rule="nonzero"/><path fill="#000000" d="M 163.050781 121.503906 C 162.589844 121.894531 162.097656 122.339844 161.488281 121.726562 C 161.355469 121.578125 161.554688 120.894531 161.613281 120.894531 C 162.113281 120.914062 162.613281 120.964844 163.109375 121.042969 Z M 163.050781 121.503906 " fill-opacity="1" fill-rule="nonzero"/></svg>