<svg xmlns="http://www.w3.org/2000/svg" xmlns:xlink="http://www.w3.org/1999/xlink" width="500" zoomAndPan="magnify" viewBox="0 0 375 374.999991" height="500" preserveAspectRatio="xMidYMid meet" version="1.0"><defs><g/><clipPath id="ac50ad15af"><path d="M 56.390625 56.867188 L 318.890625 56.867188 L 318.890625 187.367188 L 56.390625 187.367188 Z M 56.390625 56.867188 " clip-rule="nonzero"/></clipPath></defs><g clip-path="url(#ac50ad15af)"><path fill="#0a0a00" d="M 181.082031 57.542969 C 181.546875 57.269531 182.035156 57.070312 182.558594 56.949219 C 183.503906 56.859375 184.445312 56.886719 185.382812 57.023438 C 185.988281 57.179688 186.542969 57.4375 187.054688 57.796875 C 187.878906 58.261719 188.671875 58.78125 189.433594 59.347656 C 190.183594 59.90625 190.867188 60.535156 191.480469 61.238281 C 192.324219 62.242188 193.046875 63.335938 193.796875 64.402344 C 193.949219 64.621094 194.027344 64.867188 194.039062 65.132812 C 194.039062 67.457031 194.097656 69.777344 194.039062 72.101562 C 194.039062 72.554688 193.613281 73.003906 193.355469 73.46875 C 193.273438 73.617188 193.113281 73.726562 193.019531 73.871094 C 192.242188 75.15625 191.449219 76.433594 190.703125 77.738281 C 190.128906 78.730469 189.808594 79.910156 189.035156 80.722656 C 187.902344 81.933594 188.140625 83.585938 187.207031 84.824219 C 187 85.1875 186.914062 85.574219 186.945312 85.992188 C 186.945312 87.9375 186.945312 89.886719 186.945312 91.832031 C 187.042969 92.34375 187.273438 92.785156 187.632812 93.15625 C 187.992188 93.527344 188.425781 93.769531 188.933594 93.882812 C 190.394531 93.964844 191.886719 93.882812 193.082031 94.933594 C 193.1875 95 193.304688 95.035156 193.429688 95.042969 C 195.601562 95.324219 197.46875 96.355469 199.441406 97.167969 C 201.234375 97.929688 202.90625 98.902344 204.457031 100.085938 C 206.011719 101.308594 207.460938 102.648438 208.800781 104.101562 C 210.011719 105.371094 211.152344 106.703125 212.21875 108.09375 C 213.1875 109.34375 214.015625 110.691406 214.949219 111.960938 C 216.003906 113.410156 217.09375 114.824219 218.183594 116.242188 C 219.109375 117.453125 220.039062 118.667969 220.996094 119.863281 C 221.429688 120.453125 221.910156 120.992188 222.445312 121.492188 C 224.707031 123.4375 226.933594 125.433594 229.3125 127.238281 C 230.835938 128.320312 232.441406 129.269531 234.128906 130.078125 C 236.5 131.300781 238.910156 132.410156 241.34375 133.554688 C 242.90625 134.300781 244.5 134.996094 246.042969 135.785156 C 247.121094 136.335938 248.140625 137 249.1875 137.609375 C 249.371094 137.710938 249.582031 137.757812 249.773438 137.847656 L 253.996094 139.964844 C 254.078125 140 254.144531 140.066406 254.226562 140.101562 C 255.472656 140.601562 256.742188 141.042969 257.953125 141.605469 C 259.160156 142.164062 260.152344 142.792969 261.238281 143.394531 C 261.347656 143.449219 261.4375 143.53125 261.546875 143.578125 C 262.734375 144.058594 263.957031 144.472656 265.109375 145.019531 C 266.265625 145.566406 267.332031 146.214844 268.4375 146.824219 C 268.53125 146.898438 268.628906 146.960938 268.730469 147.023438 C 269.886719 147.507812 271.0625 147.945312 272.1875 148.484375 C 273.460938 149.09375 274.675781 149.851562 275.941406 150.460938 C 276.925781 150.949219 277.949219 151.375 278.9375 151.824219 C 280.304688 152.507812 281.671875 153.191406 283.039062 153.875 C 283.148438 153.929688 283.238281 154.003906 283.347656 154.058594 L 287.378906 156.144531 C 287.59375 156.253906 287.828125 156.328125 288.058594 156.429688 C 289.652344 157.160156 291.242188 157.890625 292.84375 158.644531 C 293.785156 159.085938 294.726562 159.539062 295.644531 160.011719 C 295.941406 160.199219 296.207031 160.425781 296.4375 160.695312 C 297.160156 161.425781 297.605469 162.136719 296.921875 163.214844 C 296.519531 163.84375 297.257812 164.738281 298.21875 164.8125 C 299.671875 165.011719 301.039062 164.746094 302.320312 164.027344 C 302.578125 163.894531 302.851562 163.867188 303.132812 163.945312 C 303.753906 164.140625 304.363281 164.382812 304.949219 164.667969 C 305.886719 165.066406 306.769531 165.550781 307.605469 166.132812 C 309.464844 167.582031 311.242188 169.125 312.941406 170.757812 C 313.683594 171.625 314.296875 172.574219 314.78125 173.605469 C 315.546875 174.734375 316.179688 175.933594 316.679688 177.199219 C 317.316406 179.25 318.523438 181.191406 318.101562 183.472656 C 318.074219 183.808594 317.945312 184.097656 317.710938 184.339844 C 317.480469 184.585938 317.199219 184.730469 316.863281 184.777344 C 316.148438 184.945312 315.425781 184.976562 314.695312 184.867188 C 313.96875 184.757812 313.285156 184.519531 312.648438 184.148438 C 312.421875 183.996094 312.171875 183.886719 311.902344 183.828125 C 309.910156 183.386719 307.898438 183.085938 305.863281 182.925781 C 296.300781 182.707031 286.734375 182.589844 277.167969 182.488281 C 263.4375 182.335938 249.707031 182.210938 235.980469 182.113281 C 233.566406 182.113281 231.15625 182.078125 228.75 181.980469 C 224.707031 181.824219 220.667969 181.539062 216.625 181.414062 C 212.476562 181.292969 208.324219 181.246094 204.175781 181.246094 C 192.859375 181.246094 181.535156 181.273438 170.214844 181.332031 C 163.503906 181.375 156.796875 181.511719 150.078125 181.625 C 132.636719 181.925781 115.1875 182.308594 97.738281 182.515625 C 93.457031 182.570312 89.242188 183.28125 84.984375 183.410156 C 80.011719 183.554688 75.035156 183.539062 70.0625 183.601562 C 69.304688 183.601562 68.539062 183.683594 67.78125 183.675781 C 65.792969 183.675781 64.179688 184.523438 62.636719 185.570312 C 62.511719 185.652344 62.382812 185.726562 62.246094 185.792969 C 61.496094 186.144531 60.742188 186.476562 59.984375 186.839844 C 58.40625 187.523438 56.507812 186.375 56.632812 184.722656 C 56.738281 184.007812 56.902344 183.304688 57.128906 182.617188 C 57.285156 182.117188 57.410156 181.613281 57.511719 181.101562 C 57.640625 180.179688 57.675781 179.242188 58.496094 178.558594 C 58.621094 178.457031 58.625 178.238281 58.714844 178.085938 C 59.398438 176.90625 59.984375 175.703125 60.703125 174.554688 C 61.277344 173.683594 61.898438 172.851562 62.574219 172.054688 C 63.027344 171.527344 63.519531 171.035156 64.050781 170.578125 C 64.898438 169.847656 65.769531 169.140625 66.660156 168.46875 C 67 168.277344 67.355469 168.121094 67.726562 167.996094 C 68.082031 167.859375 68.410156 167.675781 68.710938 167.445312 C 69.269531 166.917969 69.699219 167.019531 70.28125 167.445312 C 71.207031 168.289062 72.300781 168.714844 73.554688 168.722656 C 75.398438 168.605469 75.980469 167.574219 75.125 166.050781 C 74.925781 165.621094 74.925781 165.195312 75.125 164.765625 C 75.851562 163.46875 77.132812 162.777344 78.480469 162.140625 C 79.621094 161.609375 80.699219 160.960938 81.820312 160.371094 C 82.730469 159.878906 83.660156 159.402344 84.609375 158.9375 C 85.40625 158.535156 86.214844 158.152344 87.035156 157.789062 C 88.121094 157.304688 89.242188 156.875 90.3125 156.355469 C 91.386719 155.835938 92.417969 155.234375 93.460938 154.667969 C 93.648438 154.566406 93.816406 154.433594 94.003906 154.347656 C 95.667969 153.539062 97.328125 152.726562 99.003906 151.957031 C 100.078125 151.457031 101.195312 151.054688 102.253906 150.527344 C 103.316406 150 104.378906 149.367188 105.4375 148.777344 C 105.484375 148.738281 105.53125 148.707031 105.582031 148.675781 C 106.832031 148.128906 108.078125 147.597656 109.320312 147.042969 C 109.519531 146.925781 109.703125 146.792969 109.875 146.640625 C 110.125 146.4375 110.386719 146.253906 110.660156 146.085938 C 111.28125 145.757812 111.917969 145.457031 112.558594 145.164062 C 113.699219 144.652344 114.859375 144.1875 115.972656 143.648438 C 117.199219 143.058594 118.394531 142.425781 119.601562 141.800781 C 119.726562 141.71875 119.855469 141.640625 119.992188 141.578125 C 121.671875 141.121094 123.050781 140.136719 124.527344 139.300781 C 125.558594 138.714844 126.722656 138.339844 127.792969 137.804688 C 128.867188 137.273438 129.78125 136.726562 130.773438 136.171875 C 130.875 136.117188 130.957031 136.015625 131.066406 135.96875 C 132.308594 135.402344 133.566406 134.863281 134.789062 134.261719 C 135.644531 133.84375 136.457031 133.335938 137.285156 132.894531 C 138.492188 132.210938 139.714844 131.527344 140.910156 130.84375 C 141.628906 130.425781 142.332031 129.984375 143.007812 129.476562 C 144.375 128.5 145.742188 127.53125 147.058594 126.484375 C 148.144531 125.605469 149.175781 124.671875 150.15625 123.675781 C 151.234375 122.597656 152.257812 121.464844 153.238281 120.300781 C 153.835938 119.585938 154.289062 118.75 154.855469 118 C 155.421875 117.25 156.148438 116.433594 156.753906 115.628906 C 157.363281 114.824219 157.863281 113.988281 158.464844 113.195312 C 159.550781 111.769531 160.667969 110.367188 161.777344 108.960938 C 162.636719 107.867188 163.464844 106.746094 164.394531 105.703125 C 165.4375 104.527344 166.613281 103.449219 167.679688 102.285156 C 168.746094 101.125 170.207031 100.449219 171.417969 99.472656 C 172.554688 98.515625 173.8125 97.761719 175.195312 97.210938 C 176.285156 96.703125 177.328125 96.109375 178.324219 95.433594 C 178.324219 95.433594 178.378906 95.390625 178.40625 95.390625 C 180.3125 95.195312 181.820312 93.808594 183.871094 93.882812 C 185.238281 93.9375 185.59375 93.515625 185.523438 92.152344 C 185.457031 90.792969 185.273438 89.3125 185.285156 87.890625 C 185.242188 86.636719 185.378906 85.402344 185.6875 84.1875 C 186.183594 82.890625 186.800781 81.652344 187.535156 80.472656 C 188.074219 79.488281 188.675781 78.523438 189.28125 77.574219 C 189.890625 76.625 190.648438 75.75 191.148438 74.757812 C 191.914062 73.304688 193.027344 71.984375 192.699219 70.101562 C 192.4375 68.605469 192.699219 67.027344 192.601562 65.488281 C 192.496094 65.058594 192.304688 64.667969 192.027344 64.320312 C 191.898438 64.09375 191.660156 63.917969 191.570312 63.683594 C 190.785156 61.574219 189.070312 60.460938 187.082031 59.433594 C 185.832031 58.894531 184.523438 58.601562 183.160156 58.554688 C 182.480469 58.421875 181.8125 58.230469 181.164062 57.980469 C 181.089844 57.828125 181.082031 57.6875 181.082031 57.542969 Z M 300.195312 177.246094 L 300.195312 176.941406 C 298.144531 175.773438 296.09375 174.546875 294.046875 173.433594 C 292.171875 172.429688 290.183594 171.617188 288.328125 170.585938 C 286.105469 169.355469 283.976562 167.976562 281.527344 167.171875 C 281.363281 167.101562 281.207031 167.011719 281.0625 166.902344 C 280.195312 166.363281 279.371094 165.761719 278.460938 165.292969 C 275.160156 163.582031 271.835938 161.921875 268.519531 160.242188 C 268.382812 160.175781 268.261719 160.085938 268.132812 160.011719 C 267.003906 159.328125 265.890625 158.679688 264.714844 158.054688 C 263.773438 157.542969 262.761719 157.128906 261.816406 156.621094 C 259.121094 155.171875 256.441406 153.699219 253.75 152.25 C 252.773438 151.714844 251.773438 151.230469 250.804688 150.699219 C 249.835938 150.164062 248.863281 149.535156 247.859375 149.011719 C 246.707031 148.394531 245.496094 147.871094 244.335938 147.261719 C 241.601562 145.839844 238.945312 144.390625 236.230469 142.976562 C 235.253906 142.464844 234.183594 142.070312 233.226562 141.550781 C 231.085938 140.414062 228.992188 139.207031 226.84375 138.09375 C 224.699219 136.980469 222.5 135.925781 220.328125 134.839844 C 219.289062 134.316406 218.277344 133.800781 217.226562 133.242188 C 215.652344 132.382812 214.136719 131.410156 212.53125 130.613281 C 211.164062 129.929688 209.667969 129.402344 208.226562 128.800781 C 208.066406 128.722656 207.914062 128.632812 207.761719 128.535156 C 206.183594 127.640625 204.628906 126.703125 203.023438 125.855469 C 201.300781 124.949219 199.523438 124.148438 197.789062 123.265625 C 196.914062 122.824219 196.085938 122.304688 195.21875 121.847656 C 194.066406 121.238281 192.910156 120.617188 191.714844 120.089844 C 190.804688 119.6875 189.816406 119.460938 188.894531 119.09375 C 187.894531 118.636719 186.886719 118.613281 185.867188 119.019531 C 184.546875 119.570312 183.277344 120.246094 181.992188 120.890625 C 181.109375 121.332031 180.230469 121.792969 179.367188 122.257812 C 178.332031 122.835938 177.320312 123.4375 176.292969 124.03125 C 175.398438 124.558594 174.53125 125.140625 173.601562 125.609375 C 172.488281 126.171875 171.320312 126.636719 170.1875 127.148438 C 170.078125 127.195312 170.003906 127.304688 169.898438 127.367188 C 168.210938 128.355469 166.539062 129.382812 164.816406 130.316406 C 163.746094 130.90625 162.574219 131.328125 161.46875 131.863281 C 160.710938 132.222656 159.972656 132.621094 159.242188 133.03125 C 158.085938 133.671875 156.960938 134.398438 155.785156 134.992188 C 154.105469 135.886719 152.367188 136.710938 150.6875 137.609375 C 149.398438 138.289062 148.140625 139.050781 146.847656 139.738281 C 145.898438 140.25 144.90625 140.6875 143.945312 141.179688 C 141.792969 142.28125 139.640625 143.402344 137.496094 144.515625 C 137.386719 144.570312 137.289062 144.636719 137.1875 144.699219 C 136.21875 145.28125 135.261719 145.902344 134.269531 146.449219 C 132.496094 147.433594 130.675781 148.339844 128.90625 149.339844 C 126.578125 150.601562 124.269531 151.96875 121.9375 153.335938 C 120.574219 154.101562 119.207031 154.859375 117.839844 155.574219 C 116.753906 156.144531 115.632812 156.640625 114.53125 157.183594 C 113.628906 157.578125 112.753906 158.035156 111.910156 158.546875 C 110.011719 159.804688 108.1875 161.164062 105.953125 161.867188 C 105.863281 161.898438 105.78125 161.941406 105.707031 161.992188 C 103.464844 163.359375 101.246094 164.722656 98.960938 166.027344 C 97.152344 167.054688 95.230469 167.914062 93.394531 168.914062 C 91.554688 169.910156 89.976562 170.90625 88.234375 171.84375 C 86.492188 172.777344 84.628906 173.6875 82.824219 174.609375 C 82.695312 174.679688 82.585938 174.789062 82.464844 174.863281 C 81.484375 175.492188 80.507812 176.113281 79.539062 176.75 C 78.855469 177.191406 78.21875 177.664062 77.566406 178.113281 C 77.875 178.320312 78.21875 178.417969 78.589844 178.410156 C 79.410156 178.410156 80.234375 178.367188 81.054688 178.359375 C 84.839844 178.3125 88.625 178.359375 92.402344 178.21875 C 95.664062 178.09375 98.90625 177.609375 102.160156 177.535156 C 118.421875 177.28125 134.679688 177.136719 150.933594 176.914062 C 155.414062 176.851562 159.890625 176.558594 164.371094 176.515625 C 170.625 176.449219 176.882812 176.433594 183.132812 176.515625 C 189.386719 176.597656 195.753906 177.007812 202.058594 177.125 C 210.511719 177.289062 218.964844 177.375 227.410156 177.382812 C 243.460938 177.425781 259.523438 177.382812 275.558594 177.382812 C 283.074219 177.382812 290.628906 177.488281 298.164062 177.507812 C 298.847656 177.476562 299.523438 177.390625 300.195312 177.246094 Z M 300.195312 177.246094 " fill-opacity="1" fill-rule="nonzero"/></g><path fill="#0a0a00" d="M 169.160156 66.921875 C 168.664062 66.152344 168.792969 65.851562 169.160156 65.425781 C 169.769531 64.785156 170.167969 63.957031 170.71875 63.261719 C 171.648438 62.085938 172.160156 60.527344 173.71875 59.894531 C 174.015625 59.824219 174.3125 59.800781 174.613281 59.832031 C 174.675781 59.90625 174.730469 59.988281 174.785156 60.070312 C 174.039062 61.109375 173.300781 62.160156 172.542969 63.199219 C 172.050781 63.910156 171.523438 64.59375 170.957031 65.25 C 170.46875 65.835938 169.824219 66.328125 169.160156 66.921875 Z M 169.160156 66.921875 " fill-opacity="1" fill-rule="nonzero"/><path fill="#0a0a00" d="M 167.527344 68.28125 C 167.152344 68.605469 166.75 68.964844 166.25 68.46875 C 166.140625 68.34375 166.304688 67.785156 166.355469 67.785156 C 166.765625 67.800781 167.171875 67.84375 167.578125 67.90625 Z M 167.527344 68.28125 " fill-opacity="1" fill-rule="nonzero"/><g fill="#0a0a00" fill-opacity="1"><g transform="translate(103.725676, 213.878468)"><g><path d="M 2.125 0 L 2.125 -20.09375 L 8.71875 -20.09375 C 10.289062 -20.09375 11.582031 -19.832031 12.59375 -19.3125 C 13.613281 -18.800781 14.363281 -18.101562 14.84375 -17.21875 C 15.332031 -16.34375 15.578125 -15.347656 15.578125 -14.234375 C 15.578125 -13.140625 15.335938 -12.148438 14.859375 -11.265625 C 14.390625 -10.390625 13.644531 -9.6875 12.625 -9.15625 C 11.613281 -8.632812 10.3125 -8.375 8.71875 -8.375 L 4.53125 -8.375 L 4.53125 0 Z M 4.53125 -10.421875 L 8.671875 -10.421875 C 10.273438 -10.421875 11.414062 -10.757812 12.09375 -11.4375 C 12.78125 -12.113281 13.125 -13.046875 13.125 -14.234375 C 13.125 -15.441406 12.78125 -16.382812 12.09375 -17.0625 C 11.414062 -17.738281 10.273438 -18.078125 8.671875 -18.078125 L 4.53125 -18.078125 Z M 4.53125 -10.421875 "/></g></g></g><g fill="#0a0a00" fill-opacity="1"><g transform="translate(124.5924, 213.878468)"><g><path d="M 8.375 0.34375 C 7.019531 0.34375 5.816406 0.0351562 4.765625 -0.578125 C 3.710938 -1.203125 2.882812 -2.066406 2.28125 -3.171875 C 1.675781 -4.285156 1.375 -5.601562 1.375 -7.125 C 1.375 -8.613281 1.671875 -9.914062 2.265625 -11.03125 C 2.859375 -12.15625 3.6875 -13.023438 4.75 -13.640625 C 5.8125 -14.265625 7.039062 -14.578125 8.4375 -14.578125 C 9.8125 -14.578125 11 -14.265625 12 -13.640625 C 13.007812 -13.023438 13.78125 -12.207031 14.3125 -11.1875 C 14.851562 -10.175781 15.125 -9.085938 15.125 -7.921875 C 15.125 -7.710938 15.117188 -7.5 15.109375 -7.28125 C 15.097656 -7.070312 15.09375 -6.835938 15.09375 -6.578125 L 3.765625 -6.578125 C 3.816406 -5.484375 4.066406 -4.578125 4.515625 -3.859375 C 4.960938 -3.140625 5.523438 -2.597656 6.203125 -2.234375 C 6.890625 -1.867188 7.613281 -1.6875 8.375 -1.6875 C 9.375 -1.6875 10.207031 -1.914062 10.875 -2.375 C 11.550781 -2.84375 12.039062 -3.46875 12.34375 -4.25 L 14.71875 -4.25 C 14.34375 -2.925781 13.613281 -1.828125 12.53125 -0.953125 C 11.445312 -0.0859375 10.0625 0.34375 8.375 0.34375 Z M 8.375 -12.546875 C 7.226562 -12.546875 6.207031 -12.195312 5.3125 -11.5 C 4.425781 -10.800781 3.914062 -9.78125 3.78125 -8.4375 L 12.75 -8.4375 C 12.6875 -9.71875 12.242188 -10.722656 11.421875 -11.453125 C 10.597656 -12.179688 9.582031 -12.546875 8.375 -12.546875 Z M 8.375 -12.546875 "/></g></g></g><g fill="#0a0a00" fill-opacity="1"><g transform="translate(145.17214, 213.878468)"><g><path d="M 1.984375 0 L 1.984375 -14.234375 L 4.15625 -14.234375 L 4.359375 -11.515625 C 4.796875 -12.453125 5.460938 -13.195312 6.359375 -13.75 C 7.265625 -14.300781 8.378906 -14.578125 9.703125 -14.578125 L 9.703125 -12.0625 L 9.046875 -12.0625 C 8.203125 -12.0625 7.425781 -11.910156 6.71875 -11.609375 C 6.007812 -11.316406 5.441406 -10.816406 5.015625 -10.109375 C 4.597656 -9.398438 4.390625 -8.421875 4.390625 -7.171875 L 4.390625 0 Z M 1.984375 0 "/></g></g></g><g fill="#0a0a00" fill-opacity="1"><g transform="translate(159.839831, 213.878468)"><g><path d="M 11.25 0.34375 C 9.28125 0.34375 7.550781 -0.0859375 6.0625 -0.953125 C 4.582031 -1.828125 3.425781 -3.046875 2.59375 -4.609375 C 1.757812 -6.179688 1.34375 -7.992188 1.34375 -10.046875 C 1.34375 -12.097656 1.757812 -13.898438 2.59375 -15.453125 C 3.425781 -17.015625 4.582031 -18.234375 6.0625 -19.109375 C 7.550781 -19.992188 9.28125 -20.4375 11.25 -20.4375 C 13.238281 -20.4375 14.972656 -19.992188 16.453125 -19.109375 C 17.941406 -18.234375 19.097656 -17.015625 19.921875 -15.453125 C 20.742188 -13.898438 21.15625 -12.097656 21.15625 -10.046875 C 21.15625 -7.992188 20.742188 -6.179688 19.921875 -4.609375 C 19.097656 -3.046875 17.941406 -1.828125 16.453125 -0.953125 C 14.972656 -0.0859375 13.238281 0.34375 11.25 0.34375 Z M 11.25 -1.78125 C 12.726562 -1.78125 14.023438 -2.109375 15.140625 -2.765625 C 16.253906 -3.429688 17.125 -4.378906 17.75 -5.609375 C 18.375 -6.847656 18.6875 -8.328125 18.6875 -10.046875 C 18.6875 -11.765625 18.375 -13.234375 17.75 -14.453125 C 17.125 -15.679688 16.253906 -16.625 15.140625 -17.28125 C 14.023438 -17.945312 12.726562 -18.28125 11.25 -18.28125 C 9.78125 -18.28125 8.484375 -17.945312 7.359375 -17.28125 C 6.242188 -16.625 5.375 -15.679688 4.75 -14.453125 C 4.125 -13.234375 3.8125 -11.765625 3.8125 -10.046875 C 3.8125 -8.328125 4.125 -6.847656 4.75 -5.609375 C 5.375 -4.378906 6.242188 -3.429688 7.359375 -2.765625 C 8.484375 -2.109375 9.78125 -1.78125 11.25 -1.78125 Z M 11.25 -1.78125 "/></g></g></g><g fill="#0a0a00" fill-opacity="1"><g transform="translate(186.589913, 213.878468)"><g><path d="M 9.59375 0.34375 C 8.425781 0.34375 7.382812 0.101562 6.46875 -0.375 C 5.5625 -0.851562 4.867188 -1.519531 4.390625 -2.375 L 4.15625 0 L 1.984375 0 L 1.984375 -20.671875 L 4.390625 -20.671875 L 4.390625 -11.890625 C 4.847656 -12.578125 5.503906 -13.195312 6.359375 -13.75 C 7.210938 -14.300781 8.296875 -14.578125 9.609375 -14.578125 C 11.023438 -14.578125 12.257812 -14.25 13.3125 -13.59375 C 14.363281 -12.945312 15.179688 -12.0625 15.765625 -10.9375 C 16.347656 -9.8125 16.640625 -8.53125 16.640625 -7.09375 C 16.640625 -5.65625 16.347656 -4.375 15.765625 -3.25 C 15.179688 -2.132812 14.359375 -1.253906 13.296875 -0.609375 C 12.234375 0.0234375 11 0.34375 9.59375 0.34375 Z M 9.328125 -1.75 C 10.285156 -1.75 11.125 -1.972656 11.84375 -2.421875 C 12.570312 -2.867188 13.144531 -3.492188 13.5625 -4.296875 C 13.988281 -5.109375 14.203125 -6.050781 14.203125 -7.125 C 14.203125 -8.1875 13.988281 -9.117188 13.5625 -9.921875 C 13.144531 -10.734375 12.570312 -11.363281 11.84375 -11.8125 C 11.125 -12.257812 10.285156 -12.484375 9.328125 -12.484375 C 8.367188 -12.484375 7.523438 -12.257812 6.796875 -11.8125 C 6.078125 -11.363281 5.503906 -10.734375 5.078125 -9.921875 C 4.660156 -9.117188 4.453125 -8.1875 4.453125 -7.125 C 4.453125 -6.050781 4.660156 -5.109375 5.078125 -4.296875 C 5.503906 -3.492188 6.078125 -2.867188 6.796875 -2.421875 C 7.523438 -1.972656 8.367188 -1.75 9.328125 -1.75 Z M 9.328125 -1.75 "/></g></g></g><g fill="#0a0a00" fill-opacity="1"><g transform="translate(208.862907, 213.878468)"><g><path d="M 8.375 0.34375 C 7.019531 0.34375 5.816406 0.0351562 4.765625 -0.578125 C 3.710938 -1.203125 2.882812 -2.066406 2.28125 -3.171875 C 1.675781 -4.285156 1.375 -5.601562 1.375 -7.125 C 1.375 -8.613281 1.671875 -9.914062 2.265625 -11.03125 C 2.859375 -12.15625 3.6875 -13.023438 4.75 -13.640625 C 5.8125 -14.265625 7.039062 -14.578125 8.4375 -14.578125 C 9.8125 -14.578125 11 -14.265625 12 -13.640625 C 13.007812 -13.023438 13.78125 -12.207031 14.3125 -11.1875 C 14.851562 -10.175781 15.125 -9.085938 15.125 -7.921875 C 15.125 -7.710938 15.117188 -7.5 15.109375 -7.28125 C 15.097656 -7.070312 15.09375 -6.835938 15.09375 -6.578125 L 3.765625 -6.578125 C 3.816406 -5.484375 4.066406 -4.578125 4.515625 -3.859375 C 4.960938 -3.140625 5.523438 -2.597656 6.203125 -2.234375 C 6.890625 -1.867188 7.613281 -1.6875 8.375 -1.6875 C 9.375 -1.6875 10.207031 -1.914062 10.875 -2.375 C 11.550781 -2.84375 12.039062 -3.46875 12.34375 -4.25 L 14.71875 -4.25 C 14.34375 -2.925781 13.613281 -1.828125 12.53125 -0.953125 C 11.445312 -0.0859375 10.0625 0.34375 8.375 0.34375 Z M 8.375 -12.546875 C 7.226562 -12.546875 6.207031 -12.195312 5.3125 -11.5 C 4.425781 -10.800781 3.914062 -9.78125 3.78125 -8.4375 L 12.75 -8.4375 C 12.6875 -9.71875 12.242188 -10.722656 11.421875 -11.453125 C 10.597656 -12.179688 9.582031 -12.546875 8.375 -12.546875 Z M 8.375 -12.546875 "/></g></g></g><g fill="#0a0a00" fill-opacity="1"><g transform="translate(229.442644, 213.878468)"><g/></g></g><g fill="#0a0a00" fill-opacity="1"><g transform="translate(241.297795, 213.878468)"><g><path d="M 0.859375 0 L 8.265625 -20.09375 L 10.828125 -20.09375 L 18.203125 0 L 15.640625 0 L 13.8125 -5.171875 L 5.25 -5.171875 L 3.390625 0 Z M 5.96875 -7.125 L 13.09375 -7.125 L 9.53125 -17.046875 Z M 5.96875 -7.125 "/></g></g></g><g fill="#0a0a00" fill-opacity="1"><g transform="translate(264.603961, 213.878468)"><g><path d="M 2.125 0 L 2.125 -20.09375 L 4.53125 -20.09375 L 4.53125 0 Z M 2.125 0 "/></g></g></g></svg>